<svg xmlns="http://www.w3.org/2000/svg" xmlns:xlink="http://www.w3.org/1999/xlink" viewBox="0 0 107.76 83.59"><defs><style>.cls-1{isolation:isolate;}.cls-2,.cls-3{mix-blend-mode:multiply;opacity:0.2;}.cls-2{fill:url(#radial-gradient);}.cls-4{fill:#c1cdd9;opacity:0;}.cls-5{fill:#c0cbd7;opacity:0.03;}.cls-6{fill:#becad6;opacity:0.06;}.cls-7{fill:#bdc8d4;opacity:0.09;}.cls-8{fill:#bbc7d3;opacity:0.12;}.cls-9{fill:#bac5d1;opacity:0.15;}.cls-10{fill:#b9c4cf;opacity:0.18;}.cls-11{fill:#b7c2ce;opacity:0.21;}.cls-12{fill:#b6c1cc;opacity:0.24;}.cls-13{fill:#b4bfcb;opacity:0.26;}.cls-14{fill:#b3bec9;opacity:0.29;}.cls-15{fill:#b1bcc8;opacity:0.32;}.cls-16{fill:#b0bbc6;opacity:0.35;}.cls-17{fill:#afb9c4;opacity:0.38;}.cls-18{fill:#adb8c3;opacity:0.41;}.cls-19{fill:#acb6c1;opacity:0.44;}.cls-20{fill:#aab5c0;opacity:0.47;}.cls-21{fill:#a9b3be;opacity:0.5;}.cls-22{fill:#a8b2bc;opacity:0.53;}.cls-23{fill:#a6b1bb;opacity:0.56;}.cls-24{fill:#a5afb9;opacity:0.59;}.cls-25{fill:#a3aeb8;opacity:0.62;}.cls-26{fill:#a2acb6;opacity:0.65;}.cls-27{fill:#a1abb4;opacity:0.68;}.cls-28{fill:#9fa9b3;opacity:0.71;}.cls-29{fill:#9ea8b1;opacity:0.74;}.cls-30{fill:#9ca6b0;opacity:0.76;}.cls-31{fill:#9ba5ae;opacity:0.79;}.cls-32{fill:#99a3ad;opacity:0.82;}.cls-33{fill:#98a2ab;opacity:0.85;}.cls-34{fill:#97a0a9;opacity:0.88;}.cls-35{fill:#959fa8;opacity:0.91;}.cls-36{fill:#949da6;opacity:0.94;}.cls-37{fill:#929ca5;opacity:0.97;}.cls-38{fill:#919aa3;}.cls-39{fill:#dedede;}.cls-40{fill:#fff;}</style><radialGradient id="radial-gradient" cx="53.88" cy="191.1" r="53.88" gradientTransform="translate(0 -10.41) scale(1 0.38)" gradientUnits="userSpaceOnUse"><stop offset="0" stop-color="#6e757d"/><stop offset="0.2" stop-color="#969ba1"/><stop offset="0.45" stop-color="#c3c6c9"/><stop offset="0.68" stop-color="#e4e5e7"/><stop offset="0.87" stop-color="#f8f8f9"/><stop offset="1" stop-color="#fff"/></radialGradient></defs><g class="cls-1"><g id="Layer_2" data-name="Layer 2"><g id="Ñëîé_1" data-name="Ñëîé 1"><g id="_4" data-name="4"><ellipse class="cls-2" cx="53.88" cy="62.91" rx="53.88" ry="20.67"/><g class="cls-3"><path class="cls-4" d="M70.48,67.63c0,6.18-14.8,11.18-33.05,11.18s-33-5-33-11.18,14.8-11.16,33.05-11.16S70.48,61.47,70.48,67.63Z"/><path class="cls-5" d="M71.36,67.72c0,6.17-14.79,11.18-33,11.18s-33-5-33-11.18,14.79-11.16,33-11.16S71.36,61.56,71.36,67.72Z"/><path class="cls-6" d="M72.24,67.81C72.24,74,57.45,79,39.2,79S6.15,74,6.15,67.81,20.94,56.65,39.2,56.65,72.24,61.65,72.24,67.81Z"/><path class="cls-7" d="M73.12,67.9c0,6.17-14.79,11.17-33,11.17S7,74.07,7,67.9,21.82,56.73,40.08,56.73,73.12,61.74,73.12,67.9Z"/><path class="cls-8" d="M74,68C74,74.16,59.21,79.16,41,79.16s-33-5-33-11.17S22.71,56.82,41,56.82,74,61.82,74,68Z"/><path class="cls-9" d="M74.89,68.07c0,6.18-14.79,11.18-33,11.18s-33-5-33-11.18,14.79-11.16,33-11.16S74.89,61.91,74.89,68.07Z"/><path class="cls-10" d="M75.77,68.16c0,6.17-14.79,11.18-33,11.18s-33-5-33-11.18S24.47,57,42.72,57,75.77,62,75.77,68.16Z"/><path class="cls-11" d="M76.65,68.25c0,6.17-14.79,11.18-33,11.18s-33-5-33-11.18S25.35,57.09,43.61,57.09,76.65,62.09,76.65,68.25Z"/><path class="cls-12" d="M77.54,68.34c0,6.17-14.8,11.17-33.05,11.17s-33.05-5-33.05-11.17,14.8-11.16,33.05-11.16S77.54,62.18,77.54,68.34Z"/><path class="cls-13" d="M78.42,68.43c0,6.17-14.79,11.17-33.05,11.17s-33-5-33-11.17,14.79-11.17,33-11.17S78.42,62.27,78.42,68.43Z"/><path class="cls-14" d="M79.3,68.51c0,6.18-14.79,11.18-33,11.18s-33-5-33-11.18S28,57.35,46.25,57.35,79.3,62.35,79.3,68.51Z"/><path class="cls-15" d="M80.18,68.6c0,6.18-14.79,11.18-33,11.18s-33-5-33-11.18S28.88,57.44,47.14,57.44,80.18,62.44,80.18,68.6Z"/><path class="cls-16" d="M81.06,68.69c0,6.17-14.79,11.18-33,11.18S15,74.86,15,68.69,29.76,57.53,48,57.53,81.06,62.53,81.06,68.69Z"/><path class="cls-17" d="M82,68.78C82,75,67.16,80,48.9,80s-33-5-33-11.18,14.79-11.16,33-11.16S82,62.62,82,68.78Z"/><path class="cls-18" d="M82.83,68.87C82.83,75,68,80,49.78,80s-33-5-33-11.17,14.79-11.17,33-11.17S82.83,62.71,82.83,68.87Z"/><path class="cls-19" d="M83.71,69c0,6.17-14.79,11.17-33,11.17s-33-5-33-11.17S32.41,57.79,50.67,57.79,83.71,62.8,83.71,69Z"/><path class="cls-20" d="M84.59,69c0,6.18-14.79,11.18-33,11.18s-33-5-33-11.18S33.29,57.88,51.55,57.88,84.59,62.88,84.59,69Z"/><path class="cls-21" d="M85.48,69.13c0,6.18-14.8,11.18-33.05,11.18s-33-5-33-11.18S34.18,58,52.43,58,85.48,63,85.48,69.13Z"/><path class="cls-22" d="M86.36,69.22c0,6.17-14.79,11.18-33,11.18s-33-5-33-11.18,14.79-11.16,33-11.16S86.36,63.06,86.36,69.22Z"/><path class="cls-23" d="M87.24,69.31c0,6.17-14.79,11.17-33,11.17s-33.05-5-33.05-11.17S35.94,58.15,54.2,58.15,87.24,63.15,87.24,69.31Z"/><path class="cls-24" d="M88.12,69.4c0,6.17-14.79,11.17-33,11.17s-33-5-33-11.17S36.82,58.23,55.08,58.23,88.12,63.24,88.12,69.4Z"/><path class="cls-25" d="M89,69.49C89,75.66,74.21,80.66,56,80.66s-33-5-33-11.17S37.71,58.32,56,58.32,89,63.32,89,69.49Z"/><path class="cls-26" d="M89.89,69.57c0,6.18-14.79,11.18-33,11.18s-33-5-33-11.18,14.79-11.16,33-11.16S89.89,63.41,89.89,69.57Z"/><path class="cls-27" d="M90.77,69.66c0,6.17-14.79,11.18-33,11.18s-33-5-33-11.18,14.79-11.16,33-11.16S90.77,63.5,90.77,69.66Z"/><path class="cls-28" d="M91.65,69.75c0,6.17-14.79,11.18-33,11.18s-33-5-33-11.18S40.35,58.59,58.61,58.59,91.65,63.59,91.65,69.75Z"/><path class="cls-29" d="M92.54,69.84C92.54,76,77.74,81,59.49,81s-33-5-33-11.17,14.8-11.16,33.05-11.16S92.54,63.68,92.54,69.84Z"/><path class="cls-30" d="M93.42,69.93c0,6.17-14.79,11.17-33.05,11.17s-33-5-33-11.17,14.79-11.17,33-11.17S93.42,63.77,93.42,69.93Z"/><path class="cls-31" d="M94.3,70c0,6.18-14.79,11.18-33,11.18s-33-5-33-11.18S43,58.85,61.25,58.85,94.3,63.85,94.3,70Z"/><path class="cls-32" d="M95.18,70.1c0,6.18-14.79,11.18-33,11.18s-33-5-33-11.18S43.88,58.94,62.14,58.94,95.18,63.94,95.18,70.1Z"/><path class="cls-33" d="M96.06,70.19c0,6.17-14.79,11.18-33,11.18S30,76.36,30,70.19,44.76,59,63,59,96.06,64,96.06,70.19Z"/><path class="cls-34" d="M97,70.28c0,6.17-14.79,11.18-33.05,11.18s-33-5-33-11.18,14.79-11.16,33-11.16S97,64.12,97,70.28Z"/><path class="cls-35" d="M97.83,70.37c0,6.17-14.79,11.17-33,11.17s-33-5-33-11.17,14.79-11.17,33-11.17S97.83,64.21,97.83,70.37Z"/><path class="cls-36" d="M98.71,70.46c0,6.17-14.79,11.17-33,11.17s-33.05-5-33.05-11.17S47.41,59.29,65.67,59.29,98.71,64.3,98.71,70.46Z"/><path class="cls-37" d="M99.59,70.54c0,6.18-14.79,11.18-33,11.18s-33-5-33-11.18S48.29,59.38,66.55,59.38,99.59,64.38,99.59,70.54Z"/><path class="cls-38" d="M100.48,70.63c0,6.18-14.8,11.18-33,11.18s-33.05-5-33.05-11.18,14.8-11.16,33.05-11.16S100.48,64.47,100.48,70.63Z"/></g><path class="cls-39" d="M67.43,82.06l-2.1,0a.25.25,0,0,1-.24-.26.24.24,0,0,1,.25-.24h0l2.09,0h.91a.26.26,0,0,1,.25.25.25.25,0,0,1-.25.25Zm3.9-.08a.25.25,0,0,1-.25-.24.26.26,0,0,1,.25-.26c1,0,2-.1,3-.16a.24.24,0,0,1,.27.23.25.25,0,0,1-.23.26c-1,.07-2,.13-3,.17Zm-9,0h0c-1-.06-2-.13-3-.21a.25.25,0,0,1-.23-.27.24.24,0,0,1,.27-.23c1,.09,2,.16,3,.21a.25.25,0,0,1,.24.26A.26.26,0,0,1,62.34,81.93Zm15-.38a.27.27,0,0,1-.25-.22.26.26,0,0,1,.23-.28c1-.1,2-.23,3-.37a.25.25,0,1,1,.07.5c-1,.14-2,.26-3,.37Zm-21-.13h0c-1-.12-2-.26-3-.41a.25.25,0,0,1-.21-.29.25.25,0,0,1,.28-.21c1,.16,2,.3,3,.42a.26.26,0,0,1,.22.28A.27.27,0,0,1,56.36,81.42Zm26.9-.72a.25.25,0,0,1-.24-.21.24.24,0,0,1,.2-.29c1-.18,2-.39,2.92-.61a.25.25,0,0,1,.3.19.26.26,0,0,1-.18.3c-1,.22-2,.43-3,.61Zm-32.83-.23h0c-1-.2-2-.43-2.94-.67a.25.25,0,0,1-.18-.3.25.25,0,0,1,.31-.18c.93.23,1.91.46,2.91.66a.26.26,0,0,1,.2.3A.26.26,0,0,1,50.43,80.47ZM89.1,79.32a.25.25,0,0,1-.24-.18.25.25,0,0,1,.17-.31c1-.29,2-.61,2.83-.94a.25.25,0,0,1,.32.15.24.24,0,0,1-.14.32c-.9.33-1.86.65-2.87,1ZM44.62,79h-.07c-1-.33-2-.68-2.84-1a.25.25,0,0,1-.14-.33.26.26,0,0,1,.33-.13c.86.36,1.81.7,2.8,1a.26.26,0,0,1,.16.32A.25.25,0,0,1,44.62,79ZM94.71,77.2a.26.26,0,0,1-.23-.14.26.26,0,0,1,.11-.34,17.17,17.17,0,0,0,2.55-1.5.25.25,0,0,1,.35.06.24.24,0,0,1-.06.35,19.56,19.56,0,0,1-2.61,1.54ZM39.1,76.64a.27.27,0,0,1-.12,0,15.48,15.48,0,0,1-2.51-1.73.25.25,0,1,1,.33-.37,15,15,0,0,0,2.42,1.66.25.25,0,0,1-.12.47Zm60.37-3a.25.25,0,0,1-.2-.4,4.41,4.41,0,0,0,1-2.61.25.25,0,0,1,.25-.25.25.25,0,0,1,.25.25,4.85,4.85,0,0,1-1.06,2.91A.28.28,0,0,1,99.47,73.64Zm-64.69-1a.24.24,0,0,1-.22-.14,4.58,4.58,0,0,1-.43-1.85,4.44,4.44,0,0,1,.19-1.24.26.26,0,0,1,.32-.16.25.25,0,0,1,.16.31,3.75,3.75,0,0,0-.17,1.09A4,4,0,0,0,35,72.27a.25.25,0,0,1-.12.33Zm65.65-2.33a.26.26,0,0,1-.25-.21,5,5,0,0,0-1.28-2.5.24.24,0,0,1,0-.35.25.25,0,0,1,.35,0A5.47,5.47,0,0,1,100.68,70a.26.26,0,0,1-.21.29ZM36.19,67.24a.25.25,0,0,1-.18-.08.24.24,0,0,1,0-.35A13.37,13.37,0,0,1,38.45,65a.24.24,0,0,1,.34.08.25.25,0,0,1-.08.34,12.85,12.85,0,0,0-2.35,1.77A.23.23,0,0,1,36.19,67.24Zm60.6-1.49a.23.23,0,0,1-.14,0,20.8,20.8,0,0,0-2.6-1.42.25.25,0,0,1-.12-.33.25.25,0,0,1,.33-.12,21.77,21.77,0,0,1,2.66,1.45.26.26,0,0,1,.08.35A.26.26,0,0,1,96.79,65.75ZM41.25,64.07a.24.24,0,0,1-.23-.15.25.25,0,0,1,.13-.33C42,63.21,43,62.85,44,62.51a.25.25,0,0,1,.16.47c-1,.34-1.93.7-2.78,1.07A.2.2,0,0,1,41.25,64.07Zm50.13-.88h-.09c-.89-.32-1.85-.62-2.84-.9a.25.25,0,0,1-.17-.31.24.24,0,0,1,.3-.17c1,.28,2,.58,2.88.91a.25.25,0,0,1-.08.48ZM46.92,62.13a.25.25,0,0,1-.07-.49c.94-.25,1.93-.49,2.94-.7a.23.23,0,0,1,.29.19.26.26,0,0,1-.19.3c-1,.21-2,.44-2.91.69Zm38.69-.57h-.06c-.94-.21-1.93-.4-2.93-.58a.24.24,0,0,1-.2-.29.23.23,0,0,1,.29-.2c1,.18,2,.37,3,.59a.24.24,0,0,1,.19.29A.25.25,0,0,1,85.61,61.56Zm-32.82-.69a.25.25,0,0,1-.25-.2.25.25,0,0,1,.2-.29c1-.16,2-.31,3-.44a.25.25,0,0,1,.28.21.24.24,0,0,1-.21.28c-1,.14-2,.28-3,.44Zm26.91-.36h0c-1-.13-2-.25-3-.34a.25.25,0,0,1-.22-.28.23.23,0,0,1,.27-.22c1,.1,2,.21,3,.35a.25.25,0,0,1,0,.49Zm-21-.4a.25.25,0,0,1-.25-.23.25.25,0,0,1,.22-.27c1-.09,2-.16,3-.22a.25.25,0,1,1,0,.5c-1,0-2,.13-3,.22Zm15-.19h0l-3-.15a.24.24,0,0,1-.24-.25.25.25,0,0,1,.26-.25c1,0,2,.09,3,.15a.25.25,0,0,1,.23.27A.23.23,0,0,1,73.73,59.92Zm-9-.16a.25.25,0,0,1-.25-.25.24.24,0,0,1,.24-.25c.89,0,1.8,0,2.71,0h.3a.25.25,0,0,1,0,.5h-.3c-.91,0-1.81,0-2.7,0Z"/><path class="cls-40" d="M67.43,81.92c-18.81,0-33.55-5.12-33.55-11.66V11.66a.51.51,0,0,1,.5-.5.5.5,0,0,1,.5.5c0,5.79,14.91,10.68,32.55,10.68S100,17.45,100,11.66a.5.5,0,0,1,.5-.5.51.51,0,0,1,.5.5v58.6C101,76.8,86.24,81.92,67.43,81.92ZM34.88,14.56v55.7c0,5.78,14.91,10.66,32.55,10.66S100,76,100,70.26V14.56c-3.62,5.1-16.62,8.78-32.55,8.78S38.5,19.66,34.88,14.56Z"/><path class="cls-40" d="M67.43,23.34c-18.81,0-33.55-5.13-33.55-11.68S48.62,0,67.43,0,101,5.12,101,11.66,86.24,23.34,67.43,23.34ZM67.43,1C49.79,1,34.88,5.88,34.88,11.66S49.79,22.34,67.43,22.34,100,17.45,100,11.66,85.07,1,67.43,1Z"/></g></g></g></g></svg>